<?xml version="1.0" encoding="iso-8859-1"?>
<!-- Generator: Adobe Illustrator 19.0.0, SVG Export Plug-In . SVG Version: 6.00 Build 0)  -->
<svg xmlns="http://www.w3.org/2000/svg" xmlns:xlink="http://www.w3.org/1999/xlink" version="1.1" id="Layer_1" x="0px" y="0px" viewBox="0 0 512 512" style="enable-background:new 0 0 512 512;" xml:space="preserve" width="512" height="512">
<g id="teapot">
	<g id="fill_4_">
		<path style="fill:#C6C5CA;" d="M163.803,313.495l-44.384,57.604l-91.098-70.191c-8.771-6.758-10.403-19.347-3.645-28.117    l19.911-25.842c6.758-8.771,19.347-10.403,28.118-3.645L163.803,313.495z"/>
		<path style="fill:#ACABB1;" d="M70.364,333.301l49.055,37.797l44.384-57.604L74.21,244.464    C75.724,264.81,76.56,297.808,70.364,333.301z"/>
		<circle style="fill:#C6C5CA;" cx="294.707" cy="165.216" r="35.018"/>
		<path style="fill:#ACABB1;" d="M289.346,130.607c-16.795,2.58-29.657,17.092-29.657,34.609c0,19.34,15.678,35.017,35.018,35.017    c8.815,0,16.863-3.264,23.019-8.641C289.944,177.419,287.102,150.243,289.346,130.607z"/>
		<path style="fill:#7DE2E2;" d="M44.588,246.949L24.677,272.79c-6.758,8.771-5.126,21.359,3.645,28.117l20.028,15.431    l44.384-57.604l-20.028-15.431C63.934,236.546,51.346,238.178,44.588,246.949z"/>
		<path style="fill:#66CCD1;" d="M74.21,244.464L74.21,244.464c0.728,9.785,1.297,22.501,1.004,37.008l17.519-22.737L74.21,244.464z    "/>
		<g>
			<path style="fill:#C6C5CA;" d="M294.707,285.25c-74.074,0-134.339-60.264-134.339-134.338     c0-74.075,60.264-134.339,134.339-134.339c74.074,0,134.339,60.264,134.339,134.339     C429.046,224.986,368.781,285.25,294.707,285.25z M294.707,46.286c-57.691,0-104.626,46.935-104.626,104.626     s46.935,104.625,104.626,104.625c57.69,0,104.626-46.935,104.626-104.625S352.398,46.286,294.707,46.286z"/>
		</g>
		<path style="fill:#EAEAEA;" d="M428.422,504.5h-267.43c-34.826,0-63.057-28.232-63.057-63.057v-72.099    c0-108.674,88.098-196.772,196.772-196.772h0c108.674,0,196.772,88.098,196.772,196.772v72.099    C491.479,476.268,463.248,504.5,428.422,504.5z"/>
		<g>
			<path style="fill:#7DE2E2;" d="M392.362,132.946c-5.07-21.631-17.474-41.26-34.927-55.269     c-17.954-14.413-39.644-22.031-62.727-22.031c-23.083,0-44.774,7.618-62.729,22.031c-17.453,14.01-29.857,33.638-34.927,55.269     c-3.034,12.945-15.987,20.976-28.932,17.944c-12.944-3.034-20.978-15.987-17.944-28.932     c7.515-32.055,25.862-61.115,51.664-81.827C228.054,19.089,261.035,7.5,294.708,7.5s66.653,11.589,92.867,32.631     c25.802,20.712,44.15,49.772,51.664,81.828c3.034,12.944-4.805,26.907-17.944,28.931     C403.746,153.593,394.963,144.043,392.362,132.946z"/>
		</g>
		<path style="fill:#D8D7DA;" d="M294.707,172.572L294.707,172.572c-108.675,0-196.772,88.098-196.772,196.772v72.099    c0,34.826,28.232,63.057,63.058,63.057h118.947c-36.583-48.021-40.3-96.131-33.657-134.06c6.934-39.592,34.413-72.71,72.22-86.36    c71.553-25.834,95.439-71.265,95.439-71.265l0,0C380.854,187.573,339.536,172.572,294.707,172.572z"/>
		<path style="fill:#7DE2E2;" d="M99.135,453.698c5.705,28.958,31.226,50.802,61.857,50.802h267.43    c30.631,0,56.152-21.844,61.857-50.802H99.135z"/>
		<path style="fill:#66CCD1;" d="M99.135,453.698c5.705,28.958,31.226,50.802,61.857,50.802h118.947    c-13.009-17.077-21.865-34.165-27.573-50.802H99.135z"/>
		<path style="fill:#66CCD1;" d="M201.84,40.13c-25.802,20.713-44.15,49.772-51.664,81.827c-3.034,12.945,5,25.898,17.944,28.932    c12.945,3.033,25.898-4.999,28.932-17.944c4.876-20.803,16.549-39.738,32.959-53.62c0.877-10.66,2.973-21.31,6.967-30.913    c7.436-17.878,29.31-31.328,51.413-40.777C256.93,8.989,226.413,20.406,201.84,40.13z"/>
		<path style="fill:#D7F3FF;" d="M27.561,159.314c4.652-6.162,11.092-10.063,17.996-11.593c6.461-1.432,11.304-6.598,12.242-13.149    c1.08-7.543,4.944-14.75,11.557-19.954c11.803-9.288,28.921-8.595,39.967,1.583c13.277,12.234,13.284,32.919,0.425,45.176    c-4.223,4.025-9.287,6.62-14.594,7.799c-6.458,1.435-11.327,6.586-12.26,13.136c-0.791,5.549-3.099,10.95-6.98,15.549    c-11.447,13.562-32.064,14.815-45.08,2.341C19.63,189.466,18.213,171.698,27.561,159.314z"/>
		<circle style="fill:#D7F3FF;" cx="101.354" cy="53.672" r="18.79"/>
		<path style="fill:#57565C;" d="M294.707,384.824L294.707,384.824c-15.52,0-28.1-12.581-28.1-28.1v-20.43    c0-4.237,3.434-7.671,7.671-7.671h40.859c4.237,0,7.671,3.434,7.671,7.671v20.43C322.807,372.243,310.227,384.824,294.707,384.824    z"/>
		<ellipse style="fill:#FFA6BB;" cx="200.711" cy="356.723" rx="29.973" ry="23.869"/>
		<ellipse style="fill:#FFA6BB;" cx="388.703" cy="356.723" rx="29.973" ry="23.869"/>
	</g>
	<g id="stroke_8_">
		<path d="M423.281,210.74c8.561-18.367,13.124-38.599,13.251-58.951c1.998-1.719,14.922-9.289,10.007-31.542    c-7.461-33.779-27.169-64.209-54.27-85.964c-3.23-2.593-7.951-2.076-10.544,1.154c-2.593,3.23-2.076,7.951,1.153,10.543    c24.501,19.668,41.923,47.258,49.058,77.69c1.091,4.655-0.731,17.83-11.784,19.807c-14.005,2.505-18.899-5.462-20.488-12.243    c-5.451-23.256-18.781-44.353-37.534-59.406c-19.299-15.493-42.613-23.682-67.422-23.682s-48.124,8.189-67.423,23.682    c-18.754,15.053-32.084,36.15-37.535,59.406c-2.084,8.895-10.945,14.103-19.918,12.352c-13.469-2.627-13.364-15.608-12.355-19.917    c7.135-30.432,24.557-58.023,49.057-77.69C231.424,26.002,262.737,15,294.708,15c21.669,0,43.429,5.132,62.927,14.84    c3.707,1.846,8.211,0.337,10.057-3.371c1.846-3.708,0.337-8.21-3.371-10.057C342.757,5.675,318.685,0,294.708,0    c-35.372,0-70.02,12.175-97.563,34.282c-27.102,21.755-46.693,52.211-54.271,85.964c-4.43,19.731,7.652,28.978,10,31.027    c0.029,11.302,1.241,22.592,4.067,33.448c1.765,6.779,8.472,5.643,9.072,5.496c4.023-0.987,6.483-5.049,5.496-9.071    c-1.814-7.39-2.956-14.967-3.413-22.61c1.85,0.329,8.109,1.714,14.688-0.881c0.728,12.376,3.464,24.369,8.176,35.792    c-30.554,18.09-56.018,43.903-73.669,74.742l-40.008-30.826c-5.828-4.492-13.056-6.447-20.354-5.498    c-7.298,0.946-13.79,4.677-18.281,10.506l-19.911,25.842c-9.27,12.033-7.024,29.364,5.009,38.636l66.981,51.61    c-0.19,3.605-0.291,7.234-0.291,10.886v72.098c0,38.906,31.652,70.558,70.558,70.558h267.43c38.905,0,70.558-31.652,70.558-70.558    v-72.098C498.98,305.394,469.432,248.223,423.281,210.74z M421.318,158.454c-0.891,14.839-4.408,29.472-10.321,43.05    c-4.076-2.833-8.259-5.52-12.543-8.057c4.693-11.38,7.426-23.326,8.167-35.656C409.292,158.48,415.455,160.25,421.318,158.454z     M197.63,147.936c3.175-3.709,5.535-8.207,6.724-13.279c4.691-20.007,16.168-38.166,32.321-51.131    c16.608-13.332,36.676-20.379,58.033-20.379c21.358,0,41.424,7.047,58.032,20.379c16.151,12.965,27.63,31.125,32.32,51.132    c1.147,4.895,3.352,9.749,6.739,13.812c0.02,0.815,1.155,21.531-6.62,37.768c-15.108-7.495-31.266-13.177-48.193-16.754    c0.141-1.415,2.188-46.785-42.279-46.785c-44.467,0-42.439,45.374-42.297,46.789c-16.921,3.577-33.072,9.257-48.174,16.749    C196.455,169.75,197.6,148.93,197.63,147.936z M267.256,166.923c-0.035-0.567,2.221-29.225,27.452-29.225    c25.23,0,27.491,28.658,27.457,29.225c-8.984-1.212-18.146-1.851-27.457-1.851C285.399,165.072,276.237,165.711,267.256,166.923z     M30.618,277.368l19.911-25.842c2.045-2.655,7.687-8.818,17.599-2.282l14.087,10.854l-35.23,45.722l-14.087-10.854    C25.02,288.135,28.572,280.023,30.618,277.368z M58.868,314.976l35.23-45.722l16.129,12.427    c-8.769,18.38-14.863,38.267-17.793,59.157L58.868,314.976z M428.422,497h-267.43c-23.678,0-43.932-14.895-51.915-35.802h285.417    c4.143,0,7.5-3.358,7.5-7.5c0-4.142-3.357-7.5-7.5-7.5H105.652c-0.134-1.569-0.217-76.854-0.217-76.854    c0-104.365,84.907-189.272,189.273-189.272c104.365,0,189.272,84.907,189.272,189.272c0,0-0.084,75.284-0.217,76.854h-54.716    c-4.143,0-7.5,3.358-7.5,7.5c0,4.142,3.357,7.5,7.5,7.5h51.291C472.354,482.105,452.1,497,428.422,497z"/>
		<path d="M81.644,202.698c4.618-5.554,7.658-12.203,8.674-19.328c0.486-3.411,3.022-6.108,6.462-6.872    c6.805-1.512,13.078-4.864,18.143-9.691c7.66-7.302,12.003-17.561,11.913-28.147c-0.09-10.736-4.505-20.67-12.431-27.974    c-13.702-12.626-35.063-13.469-49.685-1.961c-7.846,6.174-12.94,14.976-14.345,24.786c-0.49,3.427-3.018,6.131-6.44,6.89    c-8.897,1.972-16.838,7.085-22.358,14.396l-0.001,0.001c-11.716,15.521-9.248,37.77,4.068,50.82    C36.851,216.601,64.342,223.503,81.644,202.698z M33.546,163.833c3.422-4.532,8.137-7.572,13.634-8.79    c9.577-2.123,16.66-9.741,18.043-19.409c0.855-5.975,3.971-11.345,8.772-15.124c8.896-7.002,21.9-6.485,30.245,1.205    c4.843,4.462,7.54,10.524,7.596,17.069c0.055,6.551-2.524,12.646-7.264,17.163c-3.089,2.944-6.909,4.987-11.047,5.907    c-9.594,2.132-16.682,9.746-18.058,19.398c-0.618,4.334-2.446,8.404-5.287,11.77c-4.218,4.998-10.14,7.94-16.674,8.285    c-6.525,0.345-12.736-1.971-17.485-6.521c-8.407-8.057-9.494-21.654-2.475-30.954L33.546,163.833z"/>
		<path d="M101.354,79.962c14.496,0,26.29-11.793,26.29-26.29s-11.794-26.29-26.29-26.29s-26.29,11.794-26.29,26.29    S86.857,79.962,101.354,79.962z M101.354,42.382c6.226,0,11.29,5.065,11.29,11.29s-5.064,11.29-11.29,11.29    c-6.226,0-11.29-5.065-11.29-11.29S95.128,42.382,101.354,42.382z"/>
		<path d="M294.707,392.324c-19.63,0-35.601-15.97-35.601-35.6v-20.43c0-8.365,6.806-15.171,15.171-15.171h40.859    c8.365,0,15.171,6.806,15.171,15.171v20.43C330.307,376.354,314.336,392.324,294.707,392.324z M274.107,336.294v20.43    c0,11.359,9.241,20.6,20.601,20.6c11.358,0,20.6-9.241,20.6-20.601v-20.429C315.308,336.198,274.107,336.2,274.107,336.294z"/>
		<path d="M375.364,343.621c-4.143,0-7.5-3.358-7.5-7.5V323.67c0-4.142,3.357-7.5,7.5-7.5c4.143,0,7.5,3.358,7.5,7.5v12.451    C382.864,340.263,379.507,343.621,375.364,343.621z"/>
		<path d="M214.05,343.621c-4.143,0-7.5-3.358-7.5-7.5V323.67c0-4.142,3.357-7.5,7.5-7.5s7.5,3.358,7.5,7.5v12.451    C221.55,340.263,218.193,343.621,214.05,343.621z"/>
	</g>
</g>















</svg>
